<mxfile host="Electron" agent="Mozilla/5.0 (Windows NT 10.0; Win64; x64) AppleWebKit/537.36 (KHTML, like Gecko) draw.io/24.7.5 Chrome/126.0.6478.183 Electron/31.3.0 Safari/537.36" version="24.7.5">
  <diagram name="第 1 页" id="1Vc2sEnI0VAq-TSMx5wT">
    <mxGraphModel dx="786" dy="588" grid="1" gridSize="10" guides="1" tooltips="1" connect="1" arrows="1" fold="1" page="1" pageScale="1" pageWidth="827" pageHeight="1169" math="0" shadow="0">
      <root>
        <mxCell id="0" />
        <mxCell id="1" parent="0" />
        <mxCell id="FDViIvRVYGAg2QWfG0OM-20" value="" style="rounded=1;whiteSpace=wrap;html=1;" vertex="1" parent="1">
          <mxGeometry x="190" y="310" width="500" height="60" as="geometry" />
        </mxCell>
        <mxCell id="ZZNVjwIniFcmmAV2sTje-2" value="&lt;font style=&quot;font-size: 15px;&quot;&gt;OpenCV Backend&lt;/font&gt;" style="text;html=1;align=center;verticalAlign=middle;whiteSpace=wrap;rounded=0;" parent="1" vertex="1">
          <mxGeometry x="150" y="210" width="60" height="30" as="geometry" />
        </mxCell>
        <mxCell id="FDViIvRVYGAg2QWfG0OM-3" style="edgeStyle=orthogonalEdgeStyle;rounded=0;orthogonalLoop=1;jettySize=auto;html=1;exitX=0.5;exitY=1;exitDx=0;exitDy=0;entryX=0.5;entryY=0;entryDx=0;entryDy=0;" edge="1" parent="1" source="FDViIvRVYGAg2QWfG0OM-1" target="FDViIvRVYGAg2QWfG0OM-2">
          <mxGeometry relative="1" as="geometry" />
        </mxCell>
        <mxCell id="FDViIvRVYGAg2QWfG0OM-1" value="cv2.VideoCapture" style="rounded=0;whiteSpace=wrap;html=1;" vertex="1" parent="1">
          <mxGeometry x="354" y="140" width="120" height="30" as="geometry" />
        </mxCell>
        <mxCell id="FDViIvRVYGAg2QWfG0OM-17" style="edgeStyle=orthogonalEdgeStyle;rounded=0;orthogonalLoop=1;jettySize=auto;html=1;exitX=0.5;exitY=1;exitDx=0;exitDy=0;entryX=0.5;entryY=0;entryDx=0;entryDy=0;" edge="1" parent="1" source="FDViIvRVYGAg2QWfG0OM-2" target="FDViIvRVYGAg2QWfG0OM-15">
          <mxGeometry relative="1" as="geometry">
            <Array as="points">
              <mxPoint x="414" y="420" />
              <mxPoint x="395" y="420" />
            </Array>
          </mxGeometry>
        </mxCell>
        <mxCell id="FDViIvRVYGAg2QWfG0OM-18" style="edgeStyle=orthogonalEdgeStyle;rounded=0;orthogonalLoop=1;jettySize=auto;html=1;exitX=0.5;exitY=1;exitDx=0;exitDy=0;entryX=0.5;entryY=0;entryDx=0;entryDy=0;" edge="1" parent="1" source="FDViIvRVYGAg2QWfG0OM-2" target="FDViIvRVYGAg2QWfG0OM-14">
          <mxGeometry relative="1" as="geometry">
            <Array as="points">
              <mxPoint x="414" y="420" />
              <mxPoint x="245" y="420" />
            </Array>
          </mxGeometry>
        </mxCell>
        <mxCell id="FDViIvRVYGAg2QWfG0OM-19" style="edgeStyle=orthogonalEdgeStyle;rounded=0;orthogonalLoop=1;jettySize=auto;html=1;exitX=0.5;exitY=1;exitDx=0;exitDy=0;entryX=0.5;entryY=0;entryDx=0;entryDy=0;" edge="1" parent="1" source="FDViIvRVYGAg2QWfG0OM-2" target="FDViIvRVYGAg2QWfG0OM-16">
          <mxGeometry relative="1" as="geometry">
            <Array as="points">
              <mxPoint x="414" y="420" />
              <mxPoint x="550" y="420" />
            </Array>
          </mxGeometry>
        </mxCell>
        <mxCell id="FDViIvRVYGAg2QWfG0OM-21" style="edgeStyle=orthogonalEdgeStyle;rounded=0;orthogonalLoop=1;jettySize=auto;html=1;exitX=0.75;exitY=1;exitDx=0;exitDy=0;entryX=0.5;entryY=0;entryDx=0;entryDy=0;" edge="1" parent="1" source="FDViIvRVYGAg2QWfG0OM-2" target="FDViIvRVYGAg2QWfG0OM-20">
          <mxGeometry relative="1" as="geometry" />
        </mxCell>
        <mxCell id="FDViIvRVYGAg2QWfG0OM-2" value="VideoCapture" style="rounded=0;whiteSpace=wrap;html=1;" vertex="1" parent="1">
          <mxGeometry x="354" y="220" width="120" height="60" as="geometry" />
        </mxCell>
        <mxCell id="FDViIvRVYGAg2QWfG0OM-4" value="virtual Base" style="text;html=1;align=center;verticalAlign=middle;resizable=0;points=[];autosize=1;strokeColor=none;fillColor=none;" vertex="1" parent="1">
          <mxGeometry x="240" y="235" width="90" height="30" as="geometry" />
        </mxCell>
        <mxCell id="FDViIvRVYGAg2QWfG0OM-5" value="Implementation" style="text;html=1;align=center;verticalAlign=middle;resizable=0;points=[];autosize=1;strokeColor=none;fillColor=none;" vertex="1" parent="1">
          <mxGeometry x="5" y="420" width="110" height="30" as="geometry" />
        </mxCell>
        <mxCell id="FDViIvRVYGAg2QWfG0OM-6" value="python code" style="text;html=1;align=center;verticalAlign=middle;resizable=0;points=[];autosize=1;strokeColor=none;fillColor=none;" vertex="1" parent="1">
          <mxGeometry x="500" y="140" width="90" height="30" as="geometry" />
        </mxCell>
        <mxCell id="FDViIvRVYGAg2QWfG0OM-7" value="video/src/cap.cpp" style="text;html=1;align=center;verticalAlign=middle;resizable=0;points=[];autosize=1;strokeColor=none;fillColor=none;" vertex="1" parent="1">
          <mxGeometry x="485" y="240" width="120" height="30" as="geometry" />
        </mxCell>
        <mxCell id="FDViIvRVYGAg2QWfG0OM-8" value="open" style="rounded=0;whiteSpace=wrap;html=1;" vertex="1" parent="1">
          <mxGeometry x="354" y="325" width="50" height="30" as="geometry" />
        </mxCell>
        <mxCell id="FDViIvRVYGAg2QWfG0OM-9" value="VideoCapture Constructor" style="rounded=0;whiteSpace=wrap;html=1;" vertex="1" parent="1">
          <mxGeometry x="210" y="320" width="120" height="40" as="geometry" />
        </mxCell>
        <mxCell id="FDViIvRVYGAg2QWfG0OM-11" value="grab" style="rounded=0;whiteSpace=wrap;html=1;" vertex="1" parent="1">
          <mxGeometry x="424" y="325" width="50" height="30" as="geometry" />
        </mxCell>
        <mxCell id="FDViIvRVYGAg2QWfG0OM-12" value="Video Writer" style="rounded=0;whiteSpace=wrap;html=1;" vertex="1" parent="1">
          <mxGeometry x="485" y="325" width="50" height="30" as="geometry" />
        </mxCell>
        <mxCell id="FDViIvRVYGAg2QWfG0OM-13" value="Get Backend Name" style="rounded=0;whiteSpace=wrap;html=1;" vertex="1" parent="1">
          <mxGeometry x="540" y="325" width="110" height="30" as="geometry" />
        </mxCell>
        <mxCell id="FDViIvRVYGAg2QWfG0OM-14" value="cap_gstreamer.cpp" style="rounded=0;whiteSpace=wrap;html=1;" vertex="1" parent="1">
          <mxGeometry x="180" y="450" width="130" height="40" as="geometry" />
        </mxCell>
        <mxCell id="FDViIvRVYGAg2QWfG0OM-15" value="cap_images.cpp" style="rounded=0;whiteSpace=wrap;html=1;" vertex="1" parent="1">
          <mxGeometry x="330" y="450" width="130" height="40" as="geometry" />
        </mxCell>
        <mxCell id="FDViIvRVYGAg2QWfG0OM-16" value="cap_interface.cpp" style="rounded=0;whiteSpace=wrap;html=1;" vertex="1" parent="1">
          <mxGeometry x="485" y="450" width="130" height="40" as="geometry" />
        </mxCell>
      </root>
    </mxGraphModel>
  </diagram>
</mxfile>
